<svg id="visual" viewBox="0 0 900 600" width="900" height="600" xmlns="http://www.w3.org/2000/svg" xmlns:xlink="http://www.w3.org/1999/xlink" version="1.1"><path d="M0 115L13.7 106.5C27.3 98 54.7 81 82 79.2C109.3 77.3 136.7 90.7 163.8 94.3C191 98 218 92 245.2 90.8C272.3 89.7 299.7 93.3 327 97.8C354.3 102.3 381.7 107.7 409 109.7C436.3 111.7 463.7 110.3 491 102.2C518.3 94 545.7 79 573 73.3C600.3 67.7 627.7 71.3 654.8 73.8C682 76.3 709 77.7 736.2 80.3C763.3 83 790.7 87 818 85C845.3 83 872.7 75 886.3 71L900 67L900 0L886.3 0C872.7 0 845.3 0 818 0C790.7 0 763.3 0 736.2 0C709 0 682 0 654.8 0C627.7 0 600.3 0 573 0C545.7 0 518.3 0 491 0C463.7 0 436.3 0 409 0C381.7 0 354.3 0 327 0C299.7 0 272.3 0 245.2 0C218 0 191 0 163.8 0C136.7 0 109.3 0 82 0C54.7 0 27.3 0 13.7 0L0 0Z" fill="#2C2F33" stroke-linecap="round" stroke-linejoin="miter"></path></svg>