<svg width="226" height="910" viewBox="0 0 226 910" fill="none" xmlns="http://www.w3.org/2000/svg">
<path d="M56.5 910L80.0711 896.224C103.289 882.447 150.961 855.021 145.929 827.215C141.25 799.726 84.75 772.236 75.3039 744.431C66.2109 716.941 103.289 689.451 122.446 661.646C141.25 634.219 141.25 606.667 131.804 578.861C122.711 551.498 103.289 523.882 89.4289 496.076C75.0391 468.776 66.2109 441.097 61.1789 413.924C56.5 386.055 56.5 358.312 70.625 331.139C84.75 303.333 113 275.528 127.125 248.354C141.25 220.612 141.25 192.743 127.125 165.569C113 137.89 84.75 110.59 61.1789 82.7847C37.9609 55.1688 18.5391 27.8056 9.44609 13.9028L0 6.10352e-05H226V13.7764C226 27.5528 226 54.9792 226 82.7847C226 110.274 226 137.764 226 165.569C226 193.059 226 220.549 226 248.354C226 275.781 226 303.333 226 331.139C226 358.502 226 386.118 226 413.924C226 441.224 226 468.903 226 496.076C226 523.945 226 551.688 226 578.861C226 606.667 226 634.472 226 661.646C226 689.388 226 717.257 226 744.431C226 772.11 226 799.41 226 827.215C226 854.831 226 882.194 226 896.097V910H56.5Z" fill="#A6C5F7"/>
</svg>
