<svg width="196" height="910" viewBox="0 0 196 910" fill="none" xmlns="http://www.w3.org/2000/svg">
<path d="M147 0L126.558 13.7764C106.422 27.5528 65.0781 54.9792 69.4422 82.7847C73.5 110.274 122.5 137.764 130.692 165.569C138.578 193.059 106.422 220.549 89.8078 248.354C73.5 275.781 73.5 303.333 81.6922 331.139C89.5781 358.502 106.422 386.118 118.442 413.924C130.922 441.224 138.578 468.903 142.942 496.076C147 523.945 147 551.688 134.75 578.861C122.5 606.667 98 634.472 85.75 661.646C73.5 689.388 73.5 717.257 85.75 744.431C98 772.11 122.5 799.41 142.942 827.215C163.078 854.831 179.922 882.195 187.808 896.097L196 910H0V896.224C0 882.447 0 855.021 0 827.215C0 799.726 0 772.236 0 744.431C0 716.941 0 689.451 0 661.646C0 634.219 0 606.667 0 578.861C0 551.498 0 523.882 0 496.076C0 468.776 0 441.097 0 413.924C0 386.055 0 358.313 0 331.139C0 303.333 0 275.528 0 248.354C0 220.612 0 192.743 0 165.569C0 137.89 0 110.59 0 82.7847C0 55.1688 0 27.8056 0 13.9028V0L147 0Z" fill="#A6C5F7"/>
</svg>
