<svg width="140" height="906" viewBox="0 0 140 906" fill="none" xmlns="http://www.w3.org/2000/svg">
<path d="M35 906L49.6016 892.284C63.9844 878.568 93.5156 851.263 90.3984 823.579C87.5 796.21 52.5 768.842 46.6484 741.158C41.0156 713.79 63.9844 686.421 75.8516 658.738C87.5 631.432 87.5 604 81.6484 576.317C76.0156 549.074 63.9844 521.579 55.3984 493.896C46.4844 466.716 41.0156 439.158 37.8984 412.104C35 384.358 35 356.737 43.75 329.683C52.5 302 70 274.317 78.75 247.263C87.5 219.642 87.5 191.896 78.75 164.842C70 137.284 52.5 110.104 37.8984 82.4208C23.5156 54.9263 11.4844 27.6833 5.85156 13.8417L0 0H140V13.7159C140 27.4317 140 54.7375 140 82.4208C140 109.79 140 137.158 140 164.842C140 192.21 140 219.579 140 247.263C140 274.568 140 302 140 329.683C140 356.926 140 384.421 140 412.104C140 439.284 140 466.842 140 493.896C140 521.642 140 549.263 140 576.317C140 604 140 631.683 140 658.738C140 686.358 140 714.104 140 741.158C140 768.716 140 795.896 140 823.579C140 851.074 140 878.317 140 892.158V906H35Z" fill="#2C2F33"/>
</svg>
