<svg width="132" height="910" viewBox="0 0 132 910" fill="none" xmlns="http://www.w3.org/2000/svg">
<path d="M99 0L85.2328 13.7764C71.6719 27.5528 43.8281 54.9792 46.7672 82.7847C49.5 110.274 82.5 137.764 88.0172 165.569C93.3281 193.059 71.6719 220.549 60.4828 248.354C49.5 275.781 49.5 303.333 55.0172 331.139C60.3281 358.502 71.6719 386.118 79.7672 413.924C88.1719 441.224 93.3281 468.903 96.2672 496.076C99 523.945 99 551.688 90.75 578.861C82.5 606.667 66 634.472 57.75 661.646C49.5 689.388 49.5 717.257 57.75 744.431C66 772.11 82.5 799.41 96.2672 827.215C109.828 854.831 121.172 882.194 126.483 896.097L132 910H0V896.224C0 882.447 0 855.021 0 827.215C0 799.726 0 772.236 0 744.431C0 716.941 0 689.451 0 661.646C0 634.219 0 606.667 0 578.861C0 551.498 0 523.882 0 496.076C0 468.776 0 441.097 0 413.924C0 386.055 0 358.312 0 331.139C0 303.333 0 275.528 0 248.354C0 220.612 0 192.743 0 165.569C0 137.89 0 110.59 0 82.7847C0 55.1687 0 27.8056 0 13.9028V0L99 0Z" fill="#2C2F33"/>
</svg>
