<svg width="1975" height="67" viewBox="0 0 1975 67" fill="none" xmlns="http://www.w3.org/2000/svg">
<path d="M-5 49.8L24.975 42.8747C54.95 36.0531 114.625 22.0469 175.125 23.5253C234.938 24.9 294.75 41.5 355.25 44.2753C415.062 46.9469 474.875 36.0531 535.375 30.4247C595.05 24.9 655 24.9 715.5 27.6753C775.037 30.3469 835.125 36.0531 895.625 40.1253C955.025 44.3531 1015.25 46.9469 1074.38 48.4253C1135.01 49.8 1195.38 49.8 1254.5 45.65C1315 41.5 1375.5 33.2 1434.62 29.05C1494.99 24.9 1555.62 24.9 1614.75 29.05C1674.97 33.2 1734.38 41.5 1794.88 48.4253C1854.96 55.2469 1914.5 60.9531 1944.75 63.6247L1975 66.4V-7.62939e-06H1945.02C1915.05 -7.62939e-06 1855.38 -7.62939e-06 1794.88 -7.62939e-06C1735.06 -7.62939e-06 1675.25 -7.62939e-06 1614.75 -7.62939e-06C1554.94 -7.62939e-06 1495.12 -7.62939e-06 1434.62 -7.62939e-06C1374.95 -7.62939e-06 1315 -7.62939e-06 1254.5 -7.62939e-06C1194.96 -7.62939e-06 1134.88 -7.62939e-06 1074.38 -7.62939e-06C1014.97 -7.62939e-06 954.75 -7.62939e-06 895.625 -7.62939e-06C834.987 -7.62939e-06 774.625 -7.62939e-06 715.5 -7.62939e-06C655 -7.62939e-06 594.5 -7.62939e-06 535.375 -7.62939e-06C475.013 -7.62939e-06 414.375 -7.62939e-06 355.25 -7.62939e-06C295.025 -7.62939e-06 235.625 -7.62939e-06 175.125 -7.62939e-06C115.037 -7.62939e-06 55.5 -7.62939e-06 25.25 -7.62939e-06H-5V49.8Z" fill="#2C2F33"/>
</svg>
