<svg width="1969" height="198" viewBox="0 0 1969 198" fill="none" xmlns="http://www.w3.org/2000/svg">
<path d="M-30.5403 148.516L-0.277645 127.97C29.985 107.731 90.2326 66.1762 151.313 70.5625C211.7 74.641 272.086 111.579 333.167 119.812C393.553 127.739 453.94 107.731 515.02 91.032C575.268 74.641 635.793 74.641 696.874 82.875C756.982 90.8012 817.646 107.731 878.727 119.812C938.697 132.356 999.5 140.051 1059.19 144.438C1120.41 148.516 1181.35 148.516 1241.05 136.204C1302.13 123.891 1363.21 99.266 1422.9 86.9535C1483.84 74.641 1545.06 74.641 1604.75 86.9535C1665.56 99.266 1725.53 123.891 1786.61 144.438C1847.27 164.676 1907.38 181.606 1937.92 189.532L1968.46 197.766V0.766022H1938.2C1907.93 0.766022 1847.69 0.766022 1786.61 0.766022C1726.22 0.766022 1665.83 0.766022 1604.75 0.766022C1544.37 0.766022 1483.98 0.766022 1422.9 0.766022C1362.65 0.766022 1302.13 0.766022 1241.05 0.766022C1180.94 0.766022 1120.27 0.766022 1059.19 0.766022C999.222 0.766022 938.419 0.766022 878.727 0.766022C817.508 0.766022 756.566 0.766022 696.874 0.766022C635.793 0.766022 574.713 0.766022 515.02 0.766022C454.078 0.766022 392.859 0.766022 333.167 0.766022C272.364 0.766022 212.394 0.766022 151.313 0.766022C90.6491 0.766022 30.5403 0.766022 -5.72205e-06 0.766022H-30.5403V148.516Z" fill="#A6C5F7"/>
</svg>
