<svg width="1980" height="180" viewBox="0 0 1980 180" fill="none" xmlns="http://www.w3.org/2000/svg">
<path d="M-19 180L48.2667 150.6C115.533 121.2 250.067 62.4 384.6 52.6C519.133 42.8 653.667 82 788.2 78.7537C922.733 75.2625 1057.27 29.9375 1191.8 26.4462C1326.33 23.2 1460.87 62.4 1595.4 85.2462C1729.93 108.338 1864.47 114.462 1931.73 117.954L1999 121.2V-16H1931.73C1864.47 -16 1729.93 -16 1595.4 -16C1460.87 -16 1326.33 -16 1191.8 -16C1057.27 -16 922.733 -16 788.2 -16C653.667 -16 519.133 -16 384.6 -16C250.067 -16 115.533 -16 48.2667 -16H-19V180Z" fill="#504D66"/>
</svg>
